<?xml version="1.0" standalone="no"?>
<!DOCTYPE svg PUBLIC "-//W3C//DTD SVG 20010904//EN"
 "http://www.w3.org/TR/2001/REC-SVG-20010904/DTD/svg10.dtd">
<svg version="1.0" xmlns="http://www.w3.org/2000/svg"
 width="1200.000000pt" height="1214.000000pt" viewBox="0 0 1200.000000 1214.000000"
 preserveAspectRatio="xMidYMid meet">

<g transform="translate(0.000000,1214.000000) scale(0.100000,-0.100000)"
fill="#000000" stroke="none">
<path d="M5460 11821 c-300 -173 -975 -563 -1500 -866 l-955 -551 -5 -1737 -5
-1736 -625 -361 c-344 -199 -1015 -587 -1493 -863 l-867 -501 0 -1725 0 -1726
303 -177 c166 -97 841 -492 1501 -877 l1198 -700 27 19 c14 10 679 395 1476
856 798 460 1459 843 1470 850 18 11 58 -9 380 -193 198 -113 873 -498 1499
-855 628 -358 1146 -648 1155 -645 9 2 679 383 1489 846 809 462 1477 841
1482 841 7 0 10 583 10 1725 l0 1726 -24 22 c-13 12 -75 52 -137 88 -134 77
-1476 863 -2266 1325 -304 178 -557 324 -563 324 -7 0 -10 -539 -10 -1732 l0
-1733 -867 -500 c-1028 -593 -2010 -1160 -2074 -1198 l-46 -27 -154 88 c-85
49 -417 241 -739 427 -322 186 -875 505 -1230 710 -355 205 -699 404 -765 443
l-120 70 0 161 c0 89 1 867 3 1731 l2 1569 43 25 c23 13 682 394 1465 845 782
452 1438 829 1458 838 27 14 39 15 53 6 11 -7 601 -348 1312 -759 712 -411
1374 -793 1473 -850 98 -57 180 -104 182 -104 2 0 3 779 2 1731 l-3 1732 -495
286 c-272 158 -943 545 -1490 861 -547 315 -997 577 -1000 580 -3 4 -250 -135
-550 -309z"/>
<path d="M3970 5983 c0 -511 -3 -992 -7 -1071 l-6 -144 634 5 c705 4 709 5
847 73 305 150 417 596 217 861 -62 83 -158 151 -263 187 l-35 12 47 28 c104
61 200 189 232 310 30 112 12 267 -44 370 -39 73 -146 178 -218 214 -145 73
-241 82 -896 82 l-508 0 0 -927z m1098 552 c100 -30 161 -111 162 -214 0 -79
-19 -130 -65 -177 -73 -73 -97 -77 -452 -82 l-313 -4 0 246 0 246 308 0 c249
0 318 -3 360 -15z m49 -859 c69 -22 132 -71 163 -126 19 -35 25 -63 28 -130 3
-78 1 -90 -25 -140 -31 -60 -90 -111 -151 -131 -25 -9 -149 -14 -384 -16
l-348 -4 0 286 0 287 333 -4 c276 -4 341 -8 384 -22z"/>
<path d="M6250 5840 l0 -1070 220 0 220 0 0 324 0 324 173 178 173 177 293
-501 293 -502 279 0 279 0 -76 118 c-583 897 -758 1170 -758 1183 -1 9 170
193 379 409 209 216 386 401 393 411 13 18 4 19 -272 19 l-285 0 -433 -471
-433 -470 -3 470 -2 471 -220 0 -220 0 0 -1070z"/>
<path d="M6765 4357 c-73 -25 -122 -56 -168 -107 -81 -90 -119 -243 -98 -394
21 -150 96 -257 219 -314 49 -23 71 -26 152 -27 88 0 101 3 163 33 70 35 115
79 146 147 39 83 40 82 -37 104 -88 26 -89 26 -97 -6 -27 -114 -153 -173 -260
-124 -85 39 -116 102 -123 247 -6 125 12 197 64 254 43 48 88 64 164 58 70 -5
120 -38 146 -97 l17 -38 76 19 c42 11 77 21 79 23 2 2 -8 28 -23 58 -30 64
-88 121 -154 150 -58 25 -207 33 -266 14z"/>
<path d="M3970 4290 l0 -70 120 0 120 0 0 -345 0 -345 80 0 80 0 0 345 0 345
125 0 125 0 0 70 0 70 -325 0 -325 0 0 -70z"/>
<path d="M4740 4008 c0 -195 -3 -383 -6 -417 l-7 -61 87 0 86 0 0 154 0 153
139 6 c156 6 203 20 258 78 47 50 65 102 65 186 0 116 -59 207 -152 234 -19 5
-133 12 -252 16 l-218 6 0 -355z m421 176 c59 -60 46 -154 -27 -189 -22 -10
-63 -15 -133 -15 l-101 0 0 121 0 121 115 -4 c113 -3 115 -3 146 -34z"/>
<path d="M5680 3945 l0 -415 80 0 80 0 0 180 0 180 170 0 170 0 0 -180 0 -180
80 0 80 0 0 415 0 415 -80 0 -80 0 0 -165 0 -165 -170 0 -170 0 0 165 0 165
-80 0 -80 0 0 -415z"/>
<path d="M7360 3945 l0 -415 75 0 75 0 1 323 c0 203 4 315 10 302 5 -11 38
-139 74 -285 36 -146 70 -282 76 -302 l10 -38 78 0 78 0 78 308 c42 169 81
314 86 322 5 9 9 -118 9 -307 l0 -323 75 0 75 0 0 415 0 415 -124 0 -124 0
-20 -77 c-11 -43 -44 -168 -72 -278 -29 -110 -55 -203 -59 -207 -3 -4 -40 121
-81 277 l-74 285 -123 0 -123 0 0 -415z"/>
<path d="M5360 3605 l0 -75 75 0 75 0 0 75 0 75 -75 0 -75 0 0 -75z"/>
</g>
</svg>
